<svg version="1.1" id="Layer_1" xmlns="http://www.w3.org/2000/svg" xmlns:xlink="http://www.w3.org/1999/xlink" x="0px" y="0px"
	 width="100%" viewBox="0 0 2827 1103" enable-background="new 0 0 2827 1103" xml:space="preserve">
<path fill="none" opacity="1.000000" stroke="none" 
	d="
M1907.000000,1104.000000 
	C1271.333374,1104.000000 636.166687,1104.000000 1.000000,1104.000000 
	C1.000000,736.333313 1.000000,368.666656 1.000000,1.000000 
	C943.333313,1.000000 1885.666626,1.000000 2828.000000,1.000000 
	C2828.000000,368.666656 2828.000000,736.333313 2828.000000,1104.000000 
	C2521.166748,1104.000000 2214.333252,1104.000000 1907.000000,1104.000000 
M2327.500000,712.002380 
	C2335.439697,712.002380 2343.379395,712.002380 2351.736328,712.002380 
	C2351.736328,696.638855 2351.708984,681.840515 2351.743652,667.042297 
	C2351.781738,650.711792 2351.459229,634.364929 2352.106689,618.057373 
	C2352.479492,608.662292 2357.208496,600.872681 2366.468018,597.651245 
	C2376.424072,594.187439 2386.283936,595.008057 2394.414795,602.668762 
	C2401.356201,609.208801 2402.864746,617.875122 2402.872803,626.928528 
	C2402.896240,653.428528 2402.881348,679.928467 2402.881592,706.428467 
	C2402.881592,708.195801 2402.881592,709.963135 2402.881592,711.620483 
	C2421.168457,711.620483 2438.878174,711.620483 2456.767334,711.620483 
	C2456.767334,689.919800 2456.863770,668.599915 2456.735596,647.281433 
	C2456.639160,631.290588 2456.632324,615.283203 2455.859131,599.318359 
	C2455.376465,589.353271 2451.722412,580.188660 2445.111816,572.443481 
	C2427.588135,551.911499 2391.038574,546.008667 2367.881104,560.645691 
	C2359.572998,565.897095 2352.365723,572.890137 2344.498047,579.215393 
	C2334.495361,561.951782 2317.740479,554.982849 2298.128418,552.888794 
	C2277.947021,550.733826 2261.614258,558.701172 2246.646729,573.237061 
	C2246.646729,567.012878 2246.646729,562.132690 2246.646729,557.232422 
	C2228.506348,557.232422 2210.905518,557.232422 2193.071777,557.232422 
	C2193.071777,608.856750 2193.071777,660.249512 2193.071777,711.630493 
	C2211.000000,711.630493 2228.702881,711.630493 2246.702637,711.630493 
	C2246.702637,709.284851 2246.698486,707.303223 2246.703125,705.321594 
	C2246.770996,676.490356 2246.593018,647.655273 2247.045654,618.830078 
	C2247.199463,609.037598 2251.961426,601.192322 2261.588623,597.504395 
	C2271.756348,593.609436 2284.119141,596.418457 2290.612793,603.823914 
	C2296.449463,610.480164 2297.856689,618.601624 2297.857910,627.114807 
	C2297.861572,653.614807 2297.859619,680.114746 2297.859863,706.614746 
	C2297.860107,708.358826 2297.859863,710.102905 2297.859863,712.002380 
	C2307.861084,712.002380 2317.180420,712.002380 2327.500000,712.002380 
M1593.878418,584.379517 
	C1571.654785,616.388733 1573.969360,661.689392 1598.654663,691.224243 
	C1625.142944,722.916199 1678.441650,724.815979 1704.242798,696.887390 
	C1704.703125,696.389221 1705.473145,696.177246 1706.805176,695.441406 
	C1706.805176,701.374756 1706.805176,706.604248 1706.805176,711.666199 
	C1724.744507,711.666199 1742.157349,711.666199 1759.654053,711.666199 
	C1759.654053,625.250000 1759.654053,539.169617 1759.654053,452.951782 
	C1741.699829,452.951782 1723.958130,452.951782 1705.955566,452.951782 
	C1705.955566,472.736542 1705.955566,492.220764 1705.955566,511.704987 
	C1705.955566,531.246460 1705.955566,550.787903 1705.955566,570.951782 
	C1677.135986,544.247498 1621.092529,544.743713 1593.878418,584.379517 
M1553.865356,690.499878 
	C1553.865356,646.077759 1553.865356,601.655579 1553.865356,557.228027 
	C1535.634033,557.228027 1518.031982,557.228027 1499.804688,557.228027 
	C1499.804688,561.755859 1499.804688,566.086853 1499.804688,570.966736 
	C1498.618652,570.006531 1498.096436,569.603699 1497.595825,569.175659 
	C1472.151978,547.422607 1429.916992,547.011536 1403.613281,567.597961 
	C1365.602051,597.347107 1365.072876,655.106567 1389.352661,687.333740 
	C1416.796387,723.760498 1472.615479,725.166748 1498.539185,696.608765 
	C1498.902222,696.208801 1499.550781,696.067993 1500.729370,695.469177 
	C1500.729370,701.330017 1500.729370,706.567993 1500.729370,711.699768 
	C1518.664307,711.699768 1536.086426,711.699768 1553.865356,711.699768 
	C1553.865356,704.768677 1553.865356,698.134216 1553.865356,690.499878 
M891.595398,496.095459 
	C920.817505,466.873352 950.041016,437.652679 979.260437,408.427856 
	C984.679871,403.007385 990.256836,397.731201 995.453796,392.104614 
	C1004.014771,382.835876 1002.301514,367.772919 992.082458,360.388031 
	C982.120361,353.188934 971.088440,354.646118 961.162659,364.571411 
	C858.533081,467.195862 755.911926,569.828735 653.306519,672.477356 
	C651.546997,674.237671 649.859009,676.111145 648.398071,678.121094 
	C641.510254,687.597473 643.902893,701.464600 653.508057,708.228027 
	C662.894348,714.837280 674.108398,713.564575 682.888123,704.787598 
	C752.298523,635.398193 821.694824,565.994751 891.595398,496.095459 
M261.006226,610.506287 
	C331.936768,539.580994 402.867645,468.656036 473.796082,397.728638 
	C475.445282,396.079468 477.174744,394.494598 478.683075,392.723297 
	C484.228882,386.210602 485.717957,378.725800 482.734253,370.791809 
	C479.850983,363.124634 474.217560,358.335480 465.908569,356.827911 
	C457.082581,355.226501 450.533478,358.992157 444.577515,364.951263 
	C342.104736,467.477692 239.597076,569.969299 137.097992,672.469421 
	C135.919907,673.647583 134.705399,674.794067 133.590866,676.030090 
	C128.127991,682.088318 126.496330,689.222473 128.639038,696.938293 
	C133.217453,713.424744 153.265839,718.152527 165.757004,705.704651 
	C197.386322,674.184937 228.928864,642.578125 261.006226,610.506287 
M2130.830811,567.674438 
	C2128.987793,566.550659 2127.195557,565.332031 2125.294434,564.317627 
	C2101.575684,551.663086 2076.357422,549.881897 2050.604004,555.229736 
	C2016.842285,562.240295 1982.733521,589.552490 1982.698364,633.329773 
	C1982.672119,665.849670 1996.555298,690.085022 2025.277466,705.069519 
	C2051.437988,718.717712 2079.263916,719.510010 2107.333008,712.206970 
	C2128.783936,706.625854 2145.924072,694.304993 2157.484131,675.271179 
	C2175.983398,644.811768 2173.628418,594.753845 2130.830811,567.674438 
M1098.048340,547.500000 
	C1098.048340,602.234863 1098.048340,656.969666 1098.048340,711.755981 
	C1117.395264,711.755981 1136.140991,711.755981 1155.268677,711.755981 
	C1155.268677,645.628906 1155.268677,579.745667 1155.268677,513.343018 
	C1175.025879,513.343018 1194.408691,513.343018 1213.753418,513.343018 
	C1213.753418,496.296600 1213.753418,479.774872 1213.753418,463.428162 
	C1155.301392,463.428162 1097.265015,463.428162 1039.367554,463.428162 
	C1039.367554,480.206116 1039.367554,496.624878 1039.367554,513.539673 
	C1059.064331,513.539673 1078.456055,513.539673 1098.048340,513.539673 
	C1098.048340,524.859985 1098.048340,535.679993 1098.048340,547.500000 
M1850.005981,616.895996 
	C1852.914185,612.508789 1855.155640,607.433167 1858.848755,603.856384 
	C1873.046753,590.105652 1892.677124,592.065308 1902.531494,607.748108 
	C1906.300415,613.746277 1907.269043,620.376648 1907.248169,627.335083 
	C1907.169434,653.665710 1907.216675,679.996704 1907.216797,706.327576 
	C1907.216797,708.105896 1907.216797,709.884216 1907.216797,711.682190 
	C1925.477661,711.682190 1943.203125,711.682190 1961.013550,711.682190 
	C1961.013550,676.544861 1961.354126,641.722839 1960.883667,606.911743 
	C1960.609375,586.622070 1951.097412,571.131042 1932.709839,562.067261 
	C1905.320923,548.566345 1874.569214,547.328796 1850.602661,571.385315 
	C1850.230835,571.758545 1849.579834,571.853516 1848.577881,572.286377 
	C1848.577881,566.985291 1848.577881,562.202576 1848.577881,557.327942 
	C1830.521118,557.327942 1812.806519,557.327942 1795.170410,557.327942 
	C1795.170410,609.042603 1795.170410,660.429504 1795.170410,711.724121 
	C1813.092163,711.724121 1830.678711,711.724121 1848.702148,711.724121 
	C1848.702148,709.652649 1848.702026,707.853821 1848.702026,706.054993 
	C1848.702026,680.224060 1848.659302,654.393066 1848.751099,628.562439 
	C1848.763916,624.940552 1849.435791,621.321106 1850.005981,616.895996 
M574.800537,609.197266 
	C574.197998,639.999939 573.327454,670.800720 573.119873,701.606079 
	C573.032166,714.617432 586.695435,724.348450 599.407288,721.325195 
	C610.193481,718.760010 616.639709,710.190186 616.867004,698.211365 
	C617.492554,665.241882 618.166443,632.273254 618.773926,599.303406 
	C619.516541,559.002625 620.245483,518.701538 620.914978,478.399567 
	C621.399170,449.251068 621.899536,420.101776 622.141479,390.950806 
	C622.237976,379.329681 612.654785,370.117920 601.098328,369.998566 
	C589.102722,369.874695 579.470093,378.755890 578.907654,390.438965 
	C578.699707,394.759369 578.324768,399.075287 578.239380,403.397461 
	C577.535583,439.032104 576.825073,474.666840 576.229919,510.303406 
	C575.684692,542.950867 575.280518,575.600708 574.800537,609.197266 
M506.800446,516.197205 
	C506.584351,520.516663 506.269165,524.833801 506.169983,529.155945 
	C505.818390,544.473206 505.513367,559.791809 505.240112,575.110779 
	C504.503326,616.412292 503.714813,657.713135 503.116821,699.016724 
	C502.933746,711.663452 512.284607,721.067993 524.547974,721.206299 
	C537.230835,721.349426 546.644775,712.221680 546.966309,699.449707 
	C547.247009,688.297729 547.554504,677.146118 547.769714,665.992737 
	C548.466797,629.857300 549.180420,593.721924 549.785095,557.584839 
	C550.320190,525.603333 550.717834,493.619476 551.177612,461.636688 
	C551.191956,460.637085 551.223999,459.637787 551.247864,458.638336 
	C551.785828,436.166840 552.579163,413.697388 552.760986,391.222992 
	C552.861938,378.742737 543.003784,369.710022 530.552612,369.790985 
	C518.404175,369.869934 509.346039,378.919281 508.978821,391.344055 
	C508.723114,399.996582 508.366028,408.647491 508.230469,417.301880 
	C507.719086,449.950439 507.279694,482.600128 506.800446,516.197205 
M2656.393311,552.595642 
	C2629.198486,552.008667 2606.907227,562.617859 2588.804688,582.484558 
	C2565.194580,608.395142 2561.854004,647.690918 2580.662598,676.325012 
	C2602.036377,708.864258 2640.677246,723.521973 2679.447266,713.589539 
	C2688.877930,711.173523 2698.527588,709.025208 2706.551270,702.297485 
	C2700.462158,689.819153 2694.442383,677.482849 2688.418945,665.138672 
	C2667.545166,675.934753 2648.050781,674.044800 2635.919434,660.270935 
	C2624.081543,646.830383 2622.524170,626.914612 2632.341553,613.205200 
	C2637.515869,605.979736 2644.070557,600.378174 2652.849609,598.190979 
	C2665.353271,595.075623 2677.184082,597.252197 2688.323975,604.114929 
	C2694.510498,591.615173 2700.522217,579.469238 2706.735596,566.915466 
	C2691.539795,556.420410 2674.817383,553.178040 2656.393311,552.595642 
M1234.836182,663.499939 
	C1234.836182,679.584595 1234.836182,695.669250 1234.836182,711.772583 
	C1253.012573,711.772583 1270.602783,711.772583 1288.702637,711.772583 
	C1288.702637,709.757568 1288.702759,707.966919 1288.702759,706.176331 
	C1288.702881,681.684143 1288.173584,657.176941 1288.863770,632.704224 
	C1289.460205,611.555603 1302.455811,597.809998 1323.824585,599.707642 
	C1332.503662,600.478394 1340.466431,602.605408 1347.734131,608.200623 
	C1355.317627,592.834839 1362.786011,577.702148 1370.388550,562.297729 
	C1356.586304,553.837585 1342.025269,550.938538 1326.579468,553.546692 
	C1310.840332,556.204468 1299.129883,565.698792 1288.591553,578.660889 
	C1288.591553,570.714905 1288.591553,564.092896 1288.591553,557.303528 
	C1270.564453,557.303528 1252.855591,557.303528 1234.836182,557.303528 
	C1234.836182,592.570312 1234.836182,627.535095 1234.836182,663.499939 
M733.500000,318.851562 
	C713.000549,318.858765 692.499512,318.713562 672.002136,318.923401 
	C656.762695,319.079437 646.712585,334.548462 652.371765,348.681000 
	C655.894470,357.478302 663.407410,362.192352 674.183655,362.194824 
	C748.848267,362.211853 823.512939,362.204681 898.177551,362.196869 
	C899.842773,362.196686 901.519104,362.201416 903.171509,362.026581 
	C914.107666,360.869537 923.055908,349.291687 921.389404,338.510864 
	C919.438538,325.890259 911.349609,318.874908 898.495544,318.867798 
	C843.830383,318.837555 789.165161,318.852722 733.500000,318.851562 
M2542.704102,638.500183 
	C2542.704102,611.408142 2542.704102,584.316162 2542.704102,557.211792 
	C2524.476562,557.211792 2506.875000,557.211792 2489.055176,557.211792 
	C2489.055176,608.805359 2489.055176,660.187317 2489.055176,711.689026 
	C2506.909912,711.689026 2524.614258,711.689026 2542.704102,711.689026 
	C2542.704102,687.417969 2542.704102,663.459106 2542.704102,638.500183 
M2520.799805,524.322266 
	C2538.078857,521.484253 2549.454834,506.394318 2547.237549,489.253296 
	C2545.157959,473.177063 2529.370117,460.563019 2513.744385,462.493530 
	C2496.365234,464.640625 2483.456299,479.934723 2485.349854,496.134460 
	C2487.429199,513.928040 2502.713379,526.435120 2520.799805,524.322266 
z"/>
<path fill="#010101" opacity="1.000000" stroke="none" 
	d="
M2327.000000,712.002380 
	C2317.180420,712.002380 2307.861084,712.002380 2297.859863,712.002380 
	C2297.859863,710.102905 2297.860107,708.358826 2297.859863,706.614746 
	C2297.859619,680.114746 2297.861572,653.614807 2297.857910,627.114807 
	C2297.856689,618.601624 2296.449463,610.480164 2290.612793,603.823914 
	C2284.119141,596.418457 2271.756348,593.609436 2261.588623,597.504395 
	C2251.961426,601.192322 2247.199463,609.037598 2247.045654,618.830078 
	C2246.593018,647.655273 2246.770996,676.490356 2246.703125,705.321594 
	C2246.698486,707.303223 2246.702637,709.284851 2246.702637,711.630493 
	C2228.702881,711.630493 2211.000000,711.630493 2193.071777,711.630493 
	C2193.071777,660.249512 2193.071777,608.856750 2193.071777,557.232422 
	C2210.905518,557.232422 2228.506348,557.232422 2246.646729,557.232422 
	C2246.646729,562.132690 2246.646729,567.012878 2246.646729,573.237061 
	C2261.614258,558.701172 2277.947021,550.733826 2298.128418,552.888794 
	C2317.740479,554.982849 2334.495361,561.951782 2344.498047,579.215393 
	C2352.365723,572.890137 2359.572998,565.897095 2367.881104,560.645691 
	C2391.038574,546.008667 2427.588135,551.911499 2445.111816,572.443481 
	C2451.722412,580.188660 2455.376465,589.353271 2455.859131,599.318359 
	C2456.632324,615.283203 2456.639160,631.290588 2456.735596,647.281433 
	C2456.863770,668.599915 2456.767334,689.919800 2456.767334,711.620483 
	C2438.878174,711.620483 2421.168457,711.620483 2402.881592,711.620483 
	C2402.881592,709.963135 2402.881592,708.195801 2402.881592,706.428467 
	C2402.881348,679.928467 2402.896240,653.428528 2402.872803,626.928528 
	C2402.864746,617.875122 2401.356201,609.208801 2394.414795,602.668762 
	C2386.283936,595.008057 2376.424072,594.187439 2366.468018,597.651245 
	C2357.208496,600.872681 2352.479492,608.662292 2352.106689,618.057373 
	C2351.459229,634.364929 2351.781738,650.711792 2351.743652,667.042297 
	C2351.708984,681.840515 2351.736328,696.638855 2351.736328,712.002380 
	C2343.379395,712.002380 2335.439697,712.002380 2327.000000,712.002380 
z"/>
<path fill="#010101" opacity="1.000000" stroke="none" 
	d="
M1594.057129,584.069580 
	C1621.092529,544.743713 1677.135986,544.247498 1705.955566,570.951782 
	C1705.955566,550.787903 1705.955566,531.246460 1705.955566,511.704987 
	C1705.955566,492.220764 1705.955566,472.736542 1705.955566,452.951782 
	C1723.958130,452.951782 1741.699829,452.951782 1759.654053,452.951782 
	C1759.654053,539.169617 1759.654053,625.250000 1759.654053,711.666199 
	C1742.157349,711.666199 1724.744507,711.666199 1706.805176,711.666199 
	C1706.805176,706.604248 1706.805176,701.374756 1706.805176,695.441406 
	C1705.473145,696.177246 1704.703125,696.389221 1704.242798,696.887390 
	C1678.441650,724.815979 1625.142944,722.916199 1598.654663,691.224243 
	C1573.969360,661.689392 1571.654785,616.388733 1594.057129,584.069580 
M1639.910522,617.488770 
	C1632.841431,631.403931 1635.261597,649.512451 1645.618164,660.195312 
	C1655.549438,670.439514 1674.148315,673.480835 1687.285278,667.008484 
	C1701.366577,660.070862 1708.769531,645.741821 1706.724243,629.382629 
	C1704.863647,614.498779 1693.582397,602.306396 1678.816040,599.220520 
	C1663.601318,596.040955 1647.979004,603.148376 1639.910522,617.488770 
z"/>
<path fill="#010101" opacity="1.000000" stroke="none" 
	d="
M1553.865356,690.999817 
	C1553.865356,698.134216 1553.865356,704.768677 1553.865356,711.699768 
	C1536.086426,711.699768 1518.664307,711.699768 1500.729370,711.699768 
	C1500.729370,706.567993 1500.729370,701.330017 1500.729370,695.469177 
	C1499.550781,696.067993 1498.902222,696.208801 1498.539185,696.608765 
	C1472.615479,725.166748 1416.796387,723.760498 1389.352661,687.333740 
	C1365.072876,655.106567 1365.602051,597.347107 1403.613281,567.597961 
	C1429.916992,547.011536 1472.151978,547.422607 1497.595825,569.175659 
	C1498.096436,569.603699 1498.618652,570.006531 1499.804688,570.966736 
	C1499.804688,566.086853 1499.804688,561.755859 1499.804688,557.228027 
	C1518.031982,557.228027 1535.634033,557.228027 1553.865356,557.228027 
	C1553.865356,601.655579 1553.865356,646.077759 1553.865356,690.999817 
M1479.229370,667.987305 
	C1501.076416,658.810486 1505.232056,634.747559 1497.584351,618.734253 
	C1489.062500,600.890564 1467.700806,593.503174 1450.200317,601.937073 
	C1432.252686,610.586426 1424.543579,632.671875 1433.184204,650.686157 
	C1441.173340,667.342041 1458.983643,674.215210 1479.229370,667.987305 
z"/>
<path fill="#0CC0DF" opacity="1.000000" stroke="none" 
	d="
M891.345459,496.345520 
	C821.694824,565.994751 752.298523,635.398193 682.888123,704.787598 
	C674.108398,713.564575 662.894348,714.837280 653.508057,708.228027 
	C643.902893,701.464600 641.510254,687.597473 648.398071,678.121094 
	C649.859009,676.111145 651.546997,674.237671 653.306519,672.477356 
	C755.911926,569.828735 858.533081,467.195862 961.162659,364.571411 
	C971.088440,354.646118 982.120361,353.188934 992.082458,360.388031 
	C1002.301514,367.772919 1004.014771,382.835876 995.453796,392.104614 
	C990.256836,397.731201 984.679871,403.007385 979.260437,408.427856 
	C950.041016,437.652679 920.817505,466.873352 891.345459,496.345520 
z"/>
<path fill="#0CC0DF" opacity="1.000000" stroke="none" 
	d="
M260.756195,610.756287 
	C228.928864,642.578125 197.386322,674.184937 165.757004,705.704651 
	C153.265839,718.152527 133.217453,713.424744 128.639038,696.938293 
	C126.496330,689.222473 128.127991,682.088318 133.590866,676.030090 
	C134.705399,674.794067 135.919907,673.647583 137.097992,672.469421 
	C239.597076,569.969299 342.104736,467.477692 444.577515,364.951263 
	C450.533478,358.992157 457.082581,355.226501 465.908569,356.827911 
	C474.217560,358.335480 479.850983,363.124634 482.734253,370.791809 
	C485.717957,378.725800 484.228882,386.210602 478.683075,392.723297 
	C477.174744,394.494598 475.445282,396.079468 473.796082,397.728638 
	C402.867645,468.656036 331.936768,539.580994 260.756195,610.756287 
z"/>
<path fill="#010101" opacity="1.000000" stroke="none" 
	d="
M2131.144043,567.856262 
	C2173.628418,594.753845 2175.983398,644.811768 2157.484131,675.271179 
	C2145.924072,694.304993 2128.783936,706.625854 2107.333008,712.206970 
	C2079.263916,719.510010 2051.437988,718.717712 2025.277466,705.069519 
	C1996.555298,690.085022 1982.672119,665.849670 1982.698364,633.329773 
	C1982.733521,589.552490 2016.842285,562.240295 2050.604004,555.229736 
	C2076.357422,549.881897 2101.575684,551.663086 2125.294434,564.317627 
	C2127.195557,565.332031 2128.987793,566.550659 2131.144043,567.856262 
M2078.304199,598.882812 
	C2074.515381,599.149780 2070.587646,598.865173 2066.960693,599.776306 
	C2048.221924,604.483582 2038.008911,620.014404 2040.172852,639.998840 
	C2042.072632,657.542786 2055.749023,669.594116 2074.536377,670.278992 
	C2094.264404,670.998230 2109.878662,656.812256 2110.933350,637.211365 
	C2112.025879,616.908691 2098.338379,600.385803 2078.304199,598.882812 
z"/>
<path fill="#010101" opacity="1.000000" stroke="none" 
	d="
M1098.048340,547.000000 
	C1098.048340,535.679993 1098.048340,524.859985 1098.048340,513.539673 
	C1078.456055,513.539673 1059.064331,513.539673 1039.367554,513.539673 
	C1039.367554,496.624878 1039.367554,480.206116 1039.367554,463.428162 
	C1097.265015,463.428162 1155.301392,463.428162 1213.753418,463.428162 
	C1213.753418,479.774872 1213.753418,496.296600 1213.753418,513.343018 
	C1194.408691,513.343018 1175.025879,513.343018 1155.268677,513.343018 
	C1155.268677,579.745667 1155.268677,645.628906 1155.268677,711.755981 
	C1136.140991,711.755981 1117.395264,711.755981 1098.048340,711.755981 
	C1098.048340,656.969666 1098.048340,602.234863 1098.048340,547.000000 
z"/>
<path fill="#010101" opacity="1.000000" stroke="none" 
	d="
M1849.904297,617.298218 
	C1849.435791,621.321106 1848.763916,624.940552 1848.751099,628.562439 
	C1848.659302,654.393066 1848.702026,680.224060 1848.702026,706.054993 
	C1848.702026,707.853821 1848.702148,709.652649 1848.702148,711.724121 
	C1830.678711,711.724121 1813.092163,711.724121 1795.170410,711.724121 
	C1795.170410,660.429504 1795.170410,609.042603 1795.170410,557.327942 
	C1812.806519,557.327942 1830.521118,557.327942 1848.577881,557.327942 
	C1848.577881,562.202576 1848.577881,566.985291 1848.577881,572.286377 
	C1849.579834,571.853516 1850.230835,571.758545 1850.602661,571.385315 
	C1874.569214,547.328796 1905.320923,548.566345 1932.709839,562.067261 
	C1951.097412,571.131042 1960.609375,586.622070 1960.883667,606.911743 
	C1961.354126,641.722839 1961.013550,676.544861 1961.013550,711.682190 
	C1943.203125,711.682190 1925.477661,711.682190 1907.216797,711.682190 
	C1907.216797,709.884216 1907.216797,708.105896 1907.216797,706.327576 
	C1907.216675,679.996704 1907.169434,653.665710 1907.248169,627.335083 
	C1907.269043,620.376648 1906.300415,613.746277 1902.531494,607.748108 
	C1892.677124,592.065308 1873.046753,590.105652 1858.848755,603.856384 
	C1855.155640,607.433167 1852.914185,612.508789 1849.904297,617.298218 
z"/>
<path fill="#0CC0DF" opacity="1.000000" stroke="none" 
	d="
M574.807373,608.723389 
	C575.280518,575.600708 575.684692,542.950867 576.229919,510.303406 
	C576.825073,474.666840 577.535583,439.032104 578.239380,403.397461 
	C578.324768,399.075287 578.699707,394.759369 578.907654,390.438965 
	C579.470093,378.755890 589.102722,369.874695 601.098328,369.998566 
	C612.654785,370.117920 622.237976,379.329681 622.141479,390.950806 
	C621.899536,420.101776 621.399170,449.251068 620.914978,478.399567 
	C620.245483,518.701538 619.516541,559.002625 618.773926,599.303406 
	C618.166443,632.273254 617.492554,665.241882 616.867004,698.211365 
	C616.639709,710.190186 610.193481,718.760010 599.407288,721.325195 
	C586.695435,724.348450 573.032166,714.617432 573.119873,701.606079 
	C573.327454,670.800720 574.197998,639.999939 574.807373,608.723389 
z"/>
<path fill="#0CC0DF" opacity="1.000000" stroke="none" 
	d="
M506.806915,515.723267 
	C507.279694,482.600128 507.719086,449.950439 508.230469,417.301880 
	C508.366028,408.647491 508.723114,399.996582 508.978821,391.344055 
	C509.346039,378.919281 518.404175,369.869934 530.552612,369.790985 
	C543.003784,369.710022 552.861938,378.742737 552.760986,391.222992 
	C552.579163,413.697388 551.785828,436.166840 551.247864,458.638336 
	C551.223999,459.637787 551.191956,460.637085 551.177612,461.636688 
	C550.717834,493.619476 550.320190,525.603333 549.785095,557.584839 
	C549.180420,593.721924 548.466797,629.857300 547.769714,665.992737 
	C547.554504,677.146118 547.247009,688.297729 546.966309,699.449707 
	C546.644775,712.221680 537.230835,721.349426 524.547974,721.206299 
	C512.284607,721.067993 502.933746,711.663452 503.116821,699.016724 
	C503.714813,657.713135 504.503326,616.412292 505.240112,575.110779 
	C505.513367,559.791809 505.818390,544.473206 506.169983,529.155945 
	C506.269165,524.833801 506.584351,520.516663 506.806915,515.723267 
z"/>
<path fill="#010101" opacity="1.000000" stroke="none" 
	d="
M2656.844238,552.615234 
	C2674.817383,553.178040 2691.539795,556.420410 2706.735596,566.915466 
	C2700.522217,579.469238 2694.510498,591.615173 2688.323975,604.114929 
	C2677.184082,597.252197 2665.353271,595.075623 2652.849609,598.190979 
	C2644.070557,600.378174 2637.515869,605.979736 2632.341553,613.205200 
	C2622.524170,626.914612 2624.081543,646.830383 2635.919434,660.270935 
	C2648.050781,674.044800 2667.545166,675.934753 2688.418945,665.138672 
	C2694.442383,677.482849 2700.462158,689.819153 2706.551270,702.297485 
	C2698.527588,709.025208 2688.877930,711.173523 2679.447266,713.589539 
	C2640.677246,723.521973 2602.036377,708.864258 2580.662598,676.325012 
	C2561.854004,647.690918 2565.194580,608.395142 2588.804688,582.484558 
	C2606.907227,562.617859 2629.198486,552.008667 2656.844238,552.615234 
z"/>
<path fill="#010101" opacity="1.000000" stroke="none" 
	d="
M1234.836182,662.999878 
	C1234.836182,627.535095 1234.836182,592.570312 1234.836182,557.303528 
	C1252.855591,557.303528 1270.564453,557.303528 1288.591553,557.303528 
	C1288.591553,564.092896 1288.591553,570.714905 1288.591553,578.660889 
	C1299.129883,565.698792 1310.840332,556.204468 1326.579468,553.546692 
	C1342.025269,550.938538 1356.586304,553.837585 1370.388550,562.297729 
	C1362.786011,577.702148 1355.317627,592.834839 1347.734131,608.200623 
	C1340.466431,602.605408 1332.503662,600.478394 1323.824585,599.707642 
	C1302.455811,597.809998 1289.460205,611.555603 1288.863770,632.704224 
	C1288.173584,657.176941 1288.702881,681.684143 1288.702759,706.176331 
	C1288.702759,707.966919 1288.702637,709.757568 1288.702637,711.772583 
	C1270.602783,711.772583 1253.012573,711.772583 1234.836182,711.772583 
	C1234.836182,695.669250 1234.836182,679.584595 1234.836182,662.999878 
z"/>
<path fill="#0CC0DF" opacity="1.000000" stroke="none" 
	d="
M734.000000,318.851440 
	C789.165161,318.852722 843.830383,318.837555 898.495544,318.867798 
	C911.349609,318.874908 919.438538,325.890259 921.389404,338.510864 
	C923.055908,349.291687 914.107666,360.869537 903.171509,362.026581 
	C901.519104,362.201416 899.842773,362.196686 898.177551,362.196869 
	C823.512939,362.204681 748.848267,362.211853 674.183655,362.194824 
	C663.407410,362.192352 655.894470,357.478302 652.371765,348.681000 
	C646.712585,334.548462 656.762695,319.079437 672.002136,318.923401 
	C692.499512,318.713562 713.000549,318.858765 734.000000,318.851440 
z"/>
<path fill="#020202" opacity="1.000000" stroke="none" 
	d="
M2542.704102,639.000244 
	C2542.704102,663.459106 2542.704102,687.417969 2542.704102,711.689026 
	C2524.614258,711.689026 2506.909912,711.689026 2489.055176,711.689026 
	C2489.055176,660.187317 2489.055176,608.805359 2489.055176,557.211792 
	C2506.875000,557.211792 2524.476562,557.211792 2542.704102,557.211792 
	C2542.704102,584.316162 2542.704102,611.408142 2542.704102,639.000244 
z"/>
<path fill="#020202" opacity="1.000000" stroke="none" 
	d="
M2520.373291,524.383789 
	C2502.713379,526.435120 2487.429199,513.928040 2485.349854,496.134460 
	C2483.456299,479.934723 2496.365234,464.640625 2513.744385,462.493530 
	C2529.370117,460.563019 2545.157959,473.177063 2547.237549,489.253296 
	C2549.454834,506.394318 2538.078857,521.484253 2520.373291,524.383789 
z"/>
<path fill="none" opacity="1.000000" stroke="none" 
	d="
M1640.049194,617.141663 
	C1647.979004,603.148376 1663.601318,596.040955 1678.816040,599.220520 
	C1693.582397,602.306396 1704.863647,614.498779 1706.724243,629.382629 
	C1708.769531,645.741821 1701.366577,660.070862 1687.285278,667.008484 
	C1674.148315,673.480835 1655.549438,670.439514 1645.618164,660.195312 
	C1635.261597,649.512451 1632.841431,631.403931 1640.049194,617.141663 
z"/>
<path fill="none" opacity="1.000000" stroke="none" 
	d="
M1478.843628,668.072571 
	C1458.983643,674.215210 1441.173340,667.342041 1433.184204,650.686157 
	C1424.543579,632.671875 1432.252686,610.586426 1450.200317,601.937073 
	C1467.700806,593.503174 1489.062500,600.890564 1497.584351,618.734253 
	C1505.232056,634.747559 1501.076416,658.810486 1478.843628,668.072571 
z"/>
<path fill="none" opacity="1.000000" stroke="none" 
	d="
M2078.766357,598.910767 
	C2098.338379,600.385803 2112.025879,616.908691 2110.933350,637.211365 
	C2109.878662,656.812256 2094.264404,670.998230 2074.536377,670.278992 
	C2055.749023,669.594116 2042.072632,657.542786 2040.172852,639.998840 
	C2038.008911,620.014404 2048.221924,604.483582 2066.960693,599.776306 
	C2070.587646,598.865173 2074.515381,599.149780 2078.766357,598.910767 
z"/>
</svg>