<svg xmlns="http://www.w3.org/2000/svg" viewBox="0 0 500 500" xml:space="preserve">
<path fill="#11C0DD" stroke="none" d="M324.760651,322.726959 C319.087402,328.398743 313.683533,333.831146 308.238617,339.222076 C303.510406,343.903381 296.362885,344.523315 292.443817,340.647827 C287.671936,335.928986 287.804291,328.871948 293.037750,323.586090 C306.280731,310.210449 319.618378,296.928436 332.927856,283.618713 C368.498383,248.047501 404.074402,212.481796 439.647186,176.912888 C445.068420,171.492249 449.544281,170.645966 455.468048,173.932587 C460.622528,176.792389 462.352478,184.347794 458.504333,188.877884 C454.120026,194.039139 449.450745,198.978302 444.669708,203.779343 C415.648224,232.922256 386.609283,262.048248 357.466980,291.070282 C346.802307,301.690948 335.839172,312.011871 324.760651,322.726959z"/>
<path fill="#11BFDC" stroke="none" d="M67.214935,333.215881 C64.843925,335.585236 62.761127,337.743713 60.605236,339.826569 C55.588593,344.673279 49.130672,344.611267 44.256721,339.713593 C40.532249,335.971008 41.006615,328.574982 45.328388,324.250916 C82.311256,287.248779 119.307655,250.260147 156.298782,213.266266 C168.550827,201.013290 180.758240,188.715256 193.075577,176.528305 C196.568588,173.072250 200.453308,170.498108 205.799667,172.967300 C214.174011,176.834946 215.756897,184.586304 209.173355,191.227768 C192.870132,207.674408 176.458023,224.013153 160.081802,240.387405 C129.214096,271.251404 98.340874,302.109894 67.214935,333.215881z"/>
<path fill="#11BFDD" stroke="none" d="M234.943298,346.978577 C226.358353,348.185638 221.287781,344.893188 221.136658,334.681824 C220.982346,324.254974 221.829041,313.817322 222.001404,303.380493 C222.171951,293.053070 221.938446,282.719330 222.076981,272.390961 C222.317505,254.459274 222.656799,236.528473 223.056732,218.599579 C223.267288,209.159317 223.756088,199.725494 224.001419,190.285706 C224.174744,183.615463 228.702271,178.188705 234.410934,178.078049 C240.840698,177.953415 245.940155,183.019928 245.888077,190.129410 C245.818893,199.574097 245.122040,209.013824 245.033768,218.458847 C244.881180,234.785217 245.124908,251.115494 244.950272,267.441437 C244.772751,284.035431 244.340012,300.627411 243.916687,317.217682 C243.756577,323.492096 243.071472,329.758972 243.065277,336.029724 C243.059692,341.690979 240.664642,345.260193 234.943298,346.978577z"/>
<path fill="#10C0DE" stroke="none" d="M258.020630,187.798248 C258.554474,181.858704 262.425781,178.848648 269.334473,179.001328 C274.696564,179.119843 278.934235,182.924820 278.957947,188.079178 C279.045410,207.069229 279.126862,226.061081 278.954803,245.049942 C278.833130,258.476196 278.260193,271.897827 277.958405,285.323059 C277.589233,301.745789 277.308441,318.170471 276.955719,334.593567 C276.849518,339.539154 275.356598,343.956726 270.840454,346.534180 C263.478943,350.735535 255.021820,345.548065 255.014496,336.953583 C255.002441,322.793854 254.899521,308.632721 255.061981,294.474792 C255.277267,275.712738 255.667267,256.952240 256.085266,238.193375 C256.176697,234.089920 256.702850,229.996124 257.279053,225.075790 C257.693115,212.101883 257.856873,199.950058 258.020630,187.798248z"/>
<path fill="#11BFDD" stroke="none" d="M299.849152,174.967728 C294.217896,173.010910 291.173889,168.155106 292.059906,162.542374 C292.779755,157.982010 297.897766,154.046036 303.228363,154.045166 C338.651215,154.039352 374.074097,154.050400 409.496948,154.059219 C416.392090,154.060944 420.486481,156.442383 421.914978,161.406143 C423.562469,167.130829 421.628418,171.991470 415.065155,174.931198 C376.099548,174.931976 337.974335,174.949860 299.849152,174.967728z"/>
<path fill="#51B8CC" stroke="none" d="M300.094055,175.340225 C337.974335,174.949860 376.099548,174.931976 414.712402,174.928925 C414.003906,175.287903 412.808167,175.931152 411.611542,175.932785 C375.177246,175.982224 338.742920,175.969910 302.308563,175.954285 C301.652008,175.954010 300.995514,175.796738 300.094055,175.340225z"/>
<path fill="#37BFD6" stroke="none" d="M257.652100,188.055008 C257.856873,199.950058 257.693115,212.101883 257.348785,224.622314 C257.206665,212.764542 257.245117,200.538162 257.652100,188.055008z"/>


</svg>