<?xml version="1.0" standalone="no"?>
<!DOCTYPE svg PUBLIC "-//W3C//DTD SVG 20010904//EN"
 "http://www.w3.org/TR/2001/REC-SVG-20010904/DTD/svg10.dtd">
<svg version="1.0" xmlns="http://www.w3.org/2000/svg"
 width="500.000000pt" height="500.000000pt" viewBox="0 0 500.000000 500.000000"
 preserveAspectRatio="xMidYMid meet">

<g transform="translate(0.000000,500.000000) scale(0.100000,-0.100000)"
fill="#000000" stroke="none">
<path d="M0 2500 l0 -2500 2500 0 2500 0 0 2500 0 2500 -2500 0 -2500 0 0
-2500z m4476 1637 c60 -403 110 -733 109 -734 -1 -2 -84 29 -184 68 -100 39
-184 69 -185 67 -1 -1 -119 -300 -260 -663 -142 -363 -273 -696 -291 -740 -49
-119 -237 -570 -239 -572 -2 -2 -377 152 -835 342 -457 190 -835 345 -839 345
-4 0 -216 -423 -472 -940 -256 -517 -466 -940 -468 -940 -4 0 -615 299 -619
304 -2 2 256 527 572 1167 317 639 590 1196 606 1236 17 40 33 73 35 73 2 0
371 -153 821 -340 449 -186 818 -338 820 -336 7 7 513 1301 513 1312 0 6 -81
42 -180 80 -99 38 -179 72 -177 76 4 13 1151 938 1156 932 3 -3 56 -335 117
-737z"/>
</g>
</svg>
